<?xml version="1.0" standalone="no"?>
<!DOCTYPE svg PUBLIC "-//W3C//DTD SVG 20010904//EN"
 "http://www.w3.org/TR/2001/REC-SVG-20010904/DTD/svg10.dtd">
<svg version="1.0" xmlns="http://www.w3.org/2000/svg"
 width="1400.000000pt" height="1400.000000pt" viewBox="0 0 1400.000000 1400.000000"
 preserveAspectRatio="xMidYMid meet">
<metadata>
Created by Joshua Vaage
</metadata>
<g transform="translate(0.000000,1400.000000) scale(0.100000,-0.100000)"
fill="#000000" stroke="none">
<path d="M6570 12930 c0 -1058 0 -1070 -20 -1087 -11 -10 -20 -21 -20 -25 0
-5 -9 -17 -20 -28 -11 -11 -20 -29 -20 -40 0 -11 -6 -20 -14 -20 -8 0 -17 -13
-21 -30 -4 -16 -12 -30 -20 -30 -7 0 -16 -16 -19 -35 -4 -21 -13 -35 -21 -35
-8 0 -15 -9 -15 -20 0 -11 -5 -20 -11 -20 -5 0 -17 -16 -25 -35 -8 -19 -21
-35 -29 -35 -9 0 -15 -9 -15 -25 0 -13 -6 -28 -13 -32 -7 -4 -18 -20 -24 -35
-7 -16 -17 -28 -23 -28 -5 0 -10 -6 -10 -14 0 -8 -11 -28 -25 -44 -14 -17 -25
-34 -25 -40 0 -5 -7 -12 -15 -16 -8 -3 -15 -17 -15 -32 0 -17 -6 -28 -20 -31
-11 -3 -20 -14 -20 -24 0 -11 -9 -27 -20 -36 -11 -10 -20 -23 -20 -29 0 -7 -6
-14 -14 -17 -7 -3 -16 -17 -20 -31 -4 -15 -15 -35 -26 -46 -11 -11 -20 -27
-20 -35 0 -8 -4 -15 -10 -15 -5 0 -16 -16 -24 -35 -8 -19 -20 -35 -25 -35 -6
0 -11 -8 -11 -18 0 -9 -9 -23 -20 -30 -11 -7 -20 -21 -20 -31 0 -11 -9 -23
-20 -26 -13 -4 -20 -15 -20 -31 0 -14 -6 -27 -14 -30 -8 -3 -17 -16 -20 -28
-3 -12 -21 -39 -40 -58 -19 -20 -38 -47 -41 -61 -4 -14 -13 -28 -21 -31 -8 -3
-14 -14 -14 -25 0 -11 -8 -26 -18 -33 -10 -7 -22 -25 -26 -40 -3 -16 -13 -28
-21 -28 -8 0 -15 -8 -15 -18 0 -10 -9 -25 -20 -35 -11 -9 -20 -26 -20 -37 0
-11 -6 -20 -14 -20 -8 0 -17 -12 -21 -27 -3 -15 -10 -30 -15 -33 -16 -10 -100
-142 -100 -157 0 -8 -9 -17 -20 -20 -13 -4 -20 -14 -20 -30 0 -16 -7 -27 -20
-30 -11 -3 -20 -13 -20 -23 0 -9 -9 -29 -20 -43 -11 -14 -20 -30 -20 -36 0 -6
-6 -11 -14 -11 -8 0 -17 -13 -21 -30 -4 -16 -13 -30 -20 -30 -8 0 -17 -15 -21
-35 -3 -20 -12 -35 -20 -35 -8 0 -14 -6 -14 -13 0 -8 -9 -22 -20 -32 -11 -10
-20 -26 -20 -37 0 -10 -5 -18 -11 -18 -5 0 -17 -16 -25 -35 -8 -19 -18 -35
-23 -35 -5 0 -12 -13 -16 -30 -4 -16 -13 -30 -21 -30 -8 0 -14 -6 -14 -14 0
-8 -11 -28 -25 -44 -14 -17 -25 -34 -25 -40 0 -5 -7 -12 -15 -16 -8 -3 -15
-17 -15 -30 0 -15 -8 -30 -19 -35 -10 -6 -22 -22 -25 -36 -4 -14 -13 -25 -21
-25 -8 0 -15 -8 -15 -19 0 -10 -7 -24 -15 -31 -8 -6 -17 -21 -21 -32 -3 -11
-15 -29 -25 -39 -10 -10 -19 -26 -19 -34 0 -8 -6 -15 -14 -15 -8 0 -17 -14
-21 -31 -4 -17 -13 -33 -21 -36 -8 -3 -14 -13 -14 -22 0 -9 -9 -22 -20 -29
-11 -7 -20 -20 -20 -30 0 -9 -9 -23 -20 -30 -11 -7 -20 -21 -20 -32 0 -10 -6
-23 -13 -27 -7 -4 -18 -20 -24 -35 -7 -16 -17 -28 -23 -28 -5 0 -10 -6 -10
-14 0 -7 -11 -25 -25 -40 -14 -15 -25 -34 -25 -42 0 -7 -7 -14 -15 -14 -10 0
-15 -10 -15 -29 0 -19 -6 -30 -18 -34 -11 -2 -22 -17 -25 -36 -4 -18 -13 -31
-22 -31 -8 0 -15 -8 -15 -18 0 -9 -9 -23 -20 -30 -11 -7 -20 -23 -20 -37 0
-15 -6 -25 -14 -25 -8 0 -17 -14 -21 -30 -4 -16 -13 -30 -20 -30 -7 0 -16 -13
-20 -29 -3 -16 -12 -32 -20 -35 -7 -2 -24 -27 -36 -55 -13 -27 -31 -52 -41
-54 -11 -3 -18 -15 -18 -31 0 -15 -8 -30 -19 -35 -10 -6 -22 -22 -25 -36 -4
-14 -11 -25 -16 -25 -6 0 -10 -6 -10 -14 0 -7 -11 -25 -25 -40 -14 -15 -25
-34 -25 -42 0 -7 -5 -14 -10 -14 -6 0 -16 -12 -23 -27 -6 -16 -17 -32 -24 -36
-7 -4 -13 -14 -13 -22 0 -8 -10 -21 -22 -29 -20 -14 -115 -16 -829 -16 -444 0
-814 -3 -823 -6 -14 -5 -16 -54 -16 -439 0 -336 3 -436 13 -442 6 -4 242 -10
524 -13 546 -5 562 -7 515 -50 -12 -12 -22 -27 -22 -35 0 -8 -9 -20 -20 -27
-11 -7 -20 -18 -20 -24 0 -6 -7 -17 -15 -24 -8 -7 -15 -21 -15 -31 0 -10 -9
-23 -20 -29 -11 -6 -20 -17 -20 -25 0 -8 -8 -23 -17 -33 -24 -25 -40 -50 -58
-89 -9 -18 -20 -33 -25 -33 -6 0 -10 -7 -10 -15 0 -8 -9 -22 -19 -32 -11 -10
-22 -30 -26 -45 -4 -15 -13 -29 -21 -32 -8 -3 -14 -12 -14 -19 0 -8 -9 -22
-20 -32 -11 -10 -20 -24 -20 -31 0 -7 -9 -18 -20 -24 -12 -6 -20 -21 -20 -36
0 -13 -7 -27 -15 -30 -8 -4 -15 -12 -15 -20 0 -8 -9 -22 -20 -31 -11 -10 -20
-23 -20 -30 0 -6 -11 -25 -25 -40 -14 -15 -29 -34 -35 -40 -6 -7 -13 -26 -16
-42 -4 -16 -14 -31 -24 -34 -9 -2 -20 -18 -23 -36 -4 -17 -13 -31 -21 -31 -7
0 -16 -8 -20 -17 -3 -10 -17 -36 -31 -58 -13 -22 -30 -52 -37 -67 -7 -16 -18
-28 -24 -28 -7 0 -15 -13 -19 -30 -4 -17 -13 -30 -21 -30 -8 0 -14 -9 -14 -20
0 -11 -9 -29 -20 -40 -11 -11 -20 -24 -20 -30 0 -5 -9 -14 -20 -20 -12 -6 -20
-21 -20 -36 0 -17 -7 -28 -20 -31 -13 -4 -20 -14 -20 -29 0 -14 -7 -27 -15
-30 -8 -4 -15 -12 -15 -20 0 -7 -11 -25 -25 -40 -14 -15 -25 -33 -25 -40 0 -8
-6 -14 -14 -14 -8 0 -17 -13 -21 -29 -3 -16 -12 -32 -19 -34 -7 -3 -16 -19
-19 -36 -4 -18 -13 -31 -22 -31 -8 0 -15 -6 -15 -13 0 -8 -9 -22 -20 -32 -11
-10 -20 -27 -20 -37 0 -10 -6 -21 -14 -24 -8 -3 -18 -19 -21 -35 -4 -16 -13
-29 -20 -29 -7 0 -16 -13 -20 -30 -4 -16 -12 -30 -19 -30 -6 0 -18 -16 -25
-35 -7 -19 -17 -35 -22 -35 -5 0 -9 -7 -9 -15 0 -8 -9 -19 -20 -25 -12 -6 -20
-21 -20 -35 0 -14 -8 -29 -19 -34 -10 -6 -22 -22 -25 -36 -4 -14 -11 -25 -16
-25 -6 0 -10 -7 -10 -14 0 -8 -11 -27 -25 -42 -14 -15 -25 -33 -25 -40 0 -8
-5 -14 -10 -14 -6 0 -16 -12 -23 -27 -6 -16 -17 -32 -24 -36 -7 -4 -13 -19
-13 -33 0 -17 -7 -28 -20 -31 -11 -3 -20 -13 -20 -22 0 -9 -9 -23 -20 -31 -11
-8 -20 -23 -20 -33 0 -9 -6 -20 -14 -23 -8 -3 -18 -19 -21 -35 -4 -16 -13 -29
-20 -29 -7 0 -16 -14 -20 -30 -4 -17 -13 -30 -20 -30 -7 0 -16 -13 -20 -29 -3
-16 -13 -35 -21 -42 -8 -6 -14 -18 -14 -25 0 -8 -5 -14 -11 -14 -5 0 -17 -16
-25 -35 -8 -19 -18 -35 -23 -35 -5 0 -14 -13 -20 -30 -5 -16 -14 -30 -19 -30
-6 0 -13 -12 -17 -27 -6 -26 -17 -42 -57 -81 -10 -9 -18 -22 -18 -29 0 -7 -9
-21 -20 -30 -11 -10 -20 -28 -20 -40 0 -12 -8 -27 -19 -32 -10 -6 -22 -22 -25
-36 -4 -14 -11 -25 -16 -25 -5 0 -16 -16 -24 -35 -8 -19 -20 -35 -25 -35 -6 0
-11 -9 -11 -20 0 -11 -5 -20 -10 -20 -6 0 -16 -12 -23 -27 -6 -16 -17 -32 -24
-36 -7 -4 -13 -15 -13 -22 0 -8 -8 -23 -17 -33 -24 -25 -40 -50 -58 -90 -9
-17 -20 -32 -25 -32 -5 0 -12 -11 -16 -25 -3 -14 -15 -30 -25 -36 -11 -5 -19
-20 -19 -34 0 -13 -6 -28 -13 -32 -6 -4 -26 -28 -42 -53 -16 -25 -35 -48 -42
-53 -6 -4 -14 -21 -18 -37 -4 -17 -11 -30 -16 -30 -6 0 -15 -14 -20 -30 -6
-17 -15 -30 -20 -30 -5 0 -15 -16 -23 -35 -8 -19 -20 -35 -25 -35 -6 0 -11 -9
-11 -19 0 -10 -6 -21 -14 -24 -8 -3 -17 -19 -21 -36 -4 -17 -13 -31 -20 -31
-7 0 -16 -14 -20 -30 -4 -17 -13 -30 -21 -30 -8 0 -14 -6 -14 -13 0 -8 -9 -24
-20 -37 -11 -13 -20 -28 -20 -35 0 -7 -9 -20 -20 -30 -11 -10 -20 -24 -20 -31
0 -8 -9 -19 -20 -26 -11 -7 -20 -23 -20 -35 0 -12 -6 -26 -12 -30 -18 -11 -54
-64 -62 -91 -4 -12 -13 -22 -21 -22 -7 0 -16 -14 -20 -30 -4 -17 -13 -30 -21
-30 -8 0 -14 -9 -14 -20 0 -11 -9 -29 -20 -40 -11 -11 -20 -27 -20 -35 0 -8
-9 -20 -20 -27 -11 -7 -20 -20 -20 -28 0 -8 -9 -21 -20 -28 -11 -7 -20 -23
-20 -37 0 -15 -6 -25 -14 -25 -8 0 -17 -14 -21 -30 -4 -17 -13 -30 -21 -30 -8
0 -14 -7 -14 -15 0 -8 -9 -23 -20 -32 -11 -10 -20 -23 -20 -29 0 -6 -9 -23
-20 -37 -11 -14 -20 -32 -20 -40 0 -9 -9 -19 -20 -22 -13 -4 -20 -15 -20 -32
0 -16 -7 -27 -20 -30 -11 -3 -20 -13 -20 -23 0 -9 -9 -27 -20 -40 -11 -13 -20
-29 -20 -37 0 -7 -6 -13 -14 -13 -19 0 -26 -32 -26 -117 l0 -73 3283 -2 3282
-3 3 -792 2 -793 505 0 505 0 0 789 0 789 23 6 c12 3 1456 6 3210 6 l3187 0 0
200 c0 127 -4 200 -10 200 -5 0 -10 9 -10 20 0 11 -5 20 -11 20 -5 0 -15 13
-20 29 -6 16 -16 32 -24 35 -7 2 -16 18 -20 35 -4 17 -13 31 -21 31 -8 0 -14
7 -14 15 0 8 -9 24 -20 35 -11 11 -20 27 -20 35 0 8 -9 24 -20 35 -11 11 -20
27 -20 35 0 8 -7 15 -15 15 -9 0 -18 12 -21 30 -4 16 -15 32 -25 35 -13 4 -19
16 -19 36 0 19 -5 29 -15 29 -8 0 -15 5 -15 11 0 6 -11 24 -25 41 -14 16 -25
36 -25 44 0 8 -5 14 -10 14 -6 0 -16 12 -23 28 -6 15 -17 31 -24 35 -7 4 -13
19 -13 33 0 17 -7 28 -20 31 -11 3 -20 12 -20 20 0 7 -9 23 -20 35 -11 12 -20
27 -20 34 0 6 -6 14 -14 17 -8 3 -17 19 -21 36 -4 17 -13 31 -21 31 -8 0 -14
7 -14 15 0 8 -9 24 -20 35 -11 11 -22 31 -26 46 -4 14 -13 28 -20 31 -8 3 -14
14 -14 24 0 10 -7 19 -15 19 -9 0 -18 12 -21 30 -4 16 -15 32 -25 35 -11 4
-19 15 -19 25 0 10 -7 25 -15 34 -8 8 -15 18 -15 21 0 4 -11 20 -25 37 -14 16
-25 36 -25 44 0 8 -5 14 -10 14 -6 0 -16 12 -23 28 -6 15 -17 31 -24 35 -7 4
-13 19 -13 33 0 17 -7 28 -20 31 -11 3 -20 13 -20 23 0 9 -9 25 -20 35 -11 10
-20 24 -20 32 0 7 -6 13 -14 13 -8 0 -17 15 -20 35 -4 19 -13 35 -20 35 -8 0
-17 11 -20 25 -4 14 -15 34 -26 45 -11 11 -20 26 -20 34 0 8 -7 16 -15 20 -8
3 -15 12 -15 21 0 8 -9 24 -20 35 -11 11 -20 26 -20 34 0 8 -9 18 -20 21 -13
4 -20 15 -20 30 0 13 -7 28 -16 33 -15 8 -33 35 -53 79 -6 12 -19 31 -31 43
-11 11 -20 26 -20 33 0 7 -9 20 -20 30 -11 9 -20 26 -20 37 0 11 -7 20 -15 20
-8 0 -15 8 -15 18 0 11 -9 27 -20 37 -11 10 -20 24 -20 32 0 7 -6 13 -14 13
-15 0 -26 21 -26 51 0 10 -4 19 -10 19 -5 0 -16 16 -24 35 -8 19 -19 35 -25
35 -5 0 -12 13 -16 30 -4 17 -12 30 -19 30 -7 0 -25 24 -40 54 -15 30 -34 57
-42 60 -8 3 -14 14 -14 25 0 11 -8 25 -19 30 -10 6 -22 23 -26 38 -3 15 -10
30 -14 33 -4 3 -22 29 -41 57 -18 29 -37 53 -41 53 -4 0 -10 13 -14 30 -4 17
-11 30 -16 30 -6 0 -15 13 -20 29 -6 16 -17 32 -25 35 -8 3 -14 13 -14 23 0
10 -9 24 -20 31 -11 7 -20 21 -20 32 0 11 -4 20 -10 20 -5 0 -16 16 -24 35 -8
19 -19 35 -25 35 -5 0 -12 13 -16 30 -4 16 -13 30 -21 30 -8 0 -14 5 -14 11 0
6 -9 22 -20 36 -11 14 -20 34 -20 43 0 10 -9 20 -20 23 -13 3 -20 14 -20 30 0
17 -7 28 -20 32 -11 3 -20 14 -20 24 0 10 -7 24 -15 31 -8 6 -17 22 -21 33 -6
21 -11 27 -53 74 -11 12 -23 34 -27 48 -3 14 -12 25 -20 25 -8 0 -14 9 -14 20
0 11 -9 29 -20 40 -11 11 -20 26 -20 33 0 7 -9 18 -20 25 -11 7 -20 20 -20 30
0 9 -9 23 -20 30 -11 7 -20 21 -20 32 0 12 -6 23 -14 26 -8 3 -18 19 -21 35
-4 16 -13 29 -21 29 -7 0 -16 11 -20 25 -3 14 -10 25 -16 25 -5 0 -14 13 -19
29 -6 16 -17 32 -25 35 -8 3 -14 16 -14 30 0 16 -7 27 -20 31 -11 3 -20 15
-20 26 0 10 -9 24 -20 31 -11 7 -20 20 -20 29 0 9 -9 26 -20 39 -11 13 -20 29
-20 37 0 7 -6 13 -14 13 -8 0 -17 13 -21 30 -4 16 -13 30 -20 30 -7 0 -16 14
-20 31 -4 17 -13 33 -21 36 -8 3 -14 14 -14 24 0 10 -7 19 -15 19 -9 0 -18 12
-21 30 -4 17 -11 30 -16 30 -5 0 -16 16 -24 35 -8 19 -18 35 -23 35 -5 0 -12
13 -16 30 -4 16 -13 30 -20 30 -8 0 -17 10 -21 22 -8 27 -44 80 -61 91 -7 4
-13 18 -13 30 0 12 -9 28 -20 35 -11 7 -20 18 -20 26 0 7 -7 19 -16 26 -8 8
-22 27 -30 44 -31 64 -39 76 -51 76 -13 0 -28 54 -18 70 4 7 172 10 495 10
293 0 499 4 514 10 l26 10 0 434 c0 386 -2 435 -16 440 -9 3 -380 6 -825 6
-682 0 -809 2 -809 14 0 7 -9 16 -20 19 -11 3 -20 13 -20 22 0 9 -9 28 -20 42
-11 14 -20 31 -20 37 0 6 -8 19 -17 28 -41 39 -52 55 -58 81 -4 15 -11 27 -17
27 -5 0 -14 13 -19 30 -6 16 -15 30 -20 30 -5 0 -12 8 -16 18 -3 9 -13 25 -21
35 -16 18 -33 45 -54 87 -7 14 -18 28 -25 33 -6 4 -14 21 -18 37 -4 17 -13 30
-21 30 -8 0 -14 6 -14 13 0 8 -9 22 -20 32 -11 10 -20 29 -20 42 0 14 -6 23
-15 23 -8 0 -17 11 -21 25 -3 14 -15 30 -25 36 -11 5 -19 19 -19 29 0 11 -9
25 -20 32 -11 7 -20 22 -20 33 0 11 -8 28 -17 37 -41 39 -52 55 -58 81 -4 15
-13 27 -20 27 -8 0 -16 13 -20 29 -3 16 -13 32 -21 35 -8 3 -14 12 -14 19 0 8
-9 22 -20 32 -11 10 -20 25 -20 34 0 9 -9 22 -20 29 -11 7 -20 21 -20 31 0 10
-6 21 -14 24 -8 3 -17 19 -21 36 -4 17 -13 31 -21 31 -8 0 -14 7 -14 15 0 8
-9 24 -20 35 -11 11 -20 24 -20 28 0 5 -9 19 -20 32 -11 13 -20 31 -20 42 0
10 -6 18 -14 18 -8 0 -19 14 -25 30 -5 17 -17 33 -26 36 -8 3 -15 14 -15 23 0
17 -18 45 -52 82 -10 10 -20 30 -24 44 -3 14 -12 25 -19 25 -8 0 -16 13 -20
29 -3 16 -13 32 -21 35 -8 3 -14 12 -14 19 0 8 -9 22 -20 32 -11 10 -20 24
-20 32 0 8 -9 23 -20 35 -11 12 -20 27 -20 34 0 6 -6 14 -14 17 -8 3 -17 19
-21 36 -4 17 -10 31 -14 31 -4 0 -23 24 -41 53 -19 28 -40 58 -47 65 -7 7 -13
22 -13 33 0 10 -6 19 -14 19 -8 0 -19 14 -25 30 -5 17 -17 33 -26 36 -8 3 -15
14 -15 23 0 10 -18 42 -40 71 -22 29 -40 60 -40 67 0 7 -6 13 -14 13 -8 0 -17
13 -21 29 -3 16 -13 32 -21 35 -8 3 -14 12 -14 19 0 8 -9 22 -20 32 -11 10
-20 26 -20 35 0 9 -9 25 -20 35 -11 10 -20 23 -20 29 0 6 -9 17 -20 24 -11 7
-20 23 -20 37 0 14 -5 25 -10 25 -6 0 -16 12 -23 27 -6 15 -19 35 -27 45 -37
41 -46 53 -62 82 -9 17 -22 43 -29 59 -6 15 -17 27 -25 27 -8 0 -14 9 -14 20
0 11 -8 28 -17 38 -24 25 -41 52 -56 85 -6 15 -17 27 -24 27 -7 0 -15 16 -19
35 -3 20 -12 35 -20 35 -8 0 -14 6 -14 13 0 7 -9 23 -20 35 -11 12 -20 27 -20
35 0 8 -9 22 -20 32 -11 10 -20 24 -20 31 0 7 -9 18 -20 24 -12 6 -20 21 -20
35 0 14 -5 25 -10 25 -6 0 -16 13 -23 28 -12 27 -26 46 -59 80 -9 9 -19 29
-23 45 -4 15 -11 27 -15 27 -4 0 -13 14 -19 30 -5 17 -17 30 -25 30 -9 0 -16
9 -16 20 0 11 -8 28 -17 38 -24 25 -41 52 -56 85 -6 15 -17 27 -23 27 -7 0
-15 16 -18 35 -4 21 -13 35 -21 35 -8 0 -15 6 -15 13 0 8 -9 22 -20 32 -11 10
-20 26 -20 35 0 10 -7 20 -15 24 -13 5 -15 132 -15 1066 l0 1060 -505 0 -505
0 0 -1070z m1073 -2926 c9 -19 21 -34 26 -34 5 0 12 -14 16 -31 4 -17 13 -33
20 -35 8 -3 18 -19 24 -35 5 -16 15 -29 20 -29 6 0 11 -8 11 -18 0 -10 9 -25
20 -35 11 -9 20 -24 20 -32 0 -8 5 -15 11 -15 5 0 17 -16 25 -35 8 -19 18 -35
23 -35 5 0 12 -12 16 -27 3 -15 13 -35 21 -43 43 -44 64 -72 64 -84 0 -8 7
-16 15 -20 8 -3 15 -16 15 -30 0 -16 7 -27 20 -31 11 -3 20 -13 20 -21 0 -8 9
-23 20 -34 11 -11 20 -24 20 -30 0 -5 9 -19 20 -30 11 -11 20 -29 20 -40 0
-11 6 -20 14 -20 8 0 17 -13 21 -30 4 -16 13 -30 20 -30 7 0 16 -14 20 -31 4
-17 13 -33 21 -36 8 -3 14 -10 14 -17 0 -6 9 -19 20 -29 11 -9 20 -26 20 -38
0 -12 8 -23 20 -26 13 -3 20 -14 20 -29 0 -13 6 -27 13 -31 6 -4 18 -17 25
-28 7 -11 22 -35 33 -52 12 -18 25 -33 29 -33 5 0 11 -13 15 -30 4 -16 13 -30
21 -30 8 0 14 -10 14 -25 0 -14 9 -30 20 -37 11 -7 20 -21 20 -30 0 -10 9 -23
20 -30 11 -7 20 -20 20 -28 0 -8 9 -21 20 -28 11 -7 20 -21 20 -32 0 -12 6
-23 14 -26 8 -3 18 -19 21 -35 4 -16 13 -29 21 -29 8 0 14 -7 14 -15 0 -9 11
-28 25 -43 14 -15 25 -32 25 -38 0 -7 7 -14 15 -18 8 -3 15 -14 15 -25 0 -11
8 -26 18 -33 9 -7 23 -25 29 -40 7 -16 17 -28 23 -28 5 0 10 -7 10 -15 0 -17
38 -75 57 -88 6 -4 14 -21 18 -37 4 -17 13 -30 20 -30 7 0 16 -14 20 -31 4
-17 13 -33 21 -36 8 -3 14 -11 14 -18 0 -6 9 -20 20 -30 12 -11 20 -31 20 -52
l0 -33 -688 0 c-651 0 -690 1 -705 18 -15 16 -17 114 -19 1080 -2 702 0 1063
7 1065 22 8 43 -6 58 -39z m-1075 -1041 l-3 -1078 -675 -3 c-371 -1 -685 0
-696 3 -21 5 -21 7 -10 46 7 22 16 43 22 47 5 4 15 19 21 35 7 15 17 27 23 27
5 0 10 6 10 14 0 7 11 25 25 40 14 15 25 34 25 42 0 7 4 14 10 14 5 0 12 11
16 25 3 14 14 30 24 35 9 5 20 23 23 40 4 18 13 30 22 30 8 0 15 9 15 19 0 10
6 21 14 24 8 3 17 19 21 36 4 17 13 31 20 31 7 0 16 14 20 30 4 17 13 30 21
30 8 0 14 6 14 14 0 7 9 25 20 39 11 14 20 32 20 40 0 7 9 22 20 32 11 10 20
24 20 30 0 7 9 15 20 18 14 3 20 14 20 32 0 18 6 29 20 32 13 4 20 14 20 29 0
14 7 27 15 30 8 4 15 12 15 19 0 6 11 24 25 39 14 15 25 34 25 42 0 7 5 14 10
14 6 0 16 12 23 28 6 15 17 31 24 35 7 4 13 19 13 32 0 14 8 29 20 35 11 6 20
17 20 25 0 8 5 15 11 15 5 0 17 16 25 35 8 19 18 35 23 35 5 0 12 14 16 30 4
17 13 30 21 30 8 0 14 6 14 13 0 7 10 27 23 44 13 18 32 50 43 72 10 23 25 41
32 41 7 0 15 14 19 31 3 19 14 34 25 36 10 3 18 13 18 23 0 10 7 25 15 34 8 8
15 18 15 21 0 4 11 20 25 37 14 16 25 36 25 44 0 8 5 14 10 14 6 0 16 12 23
28 6 15 17 31 24 35 7 4 13 19 13 32 0 14 8 29 20 35 11 6 20 17 20 25 0 8 4
15 9 15 5 0 16 16 25 35 9 19 21 35 26 35 4 0 11 13 15 30 4 16 12 33 19 37
14 10 47 58 63 96 7 15 17 27 23 27 5 0 10 9 10 20 0 13 7 20 20 20 20 0 20
-5 18 -1077z m-10 -1991 c10 -7 12 -462 10 -2243 l-3 -2234 -2420 -3 c-1331
-1 -2435 0 -2452 3 -20 4 -33 12 -33 20 0 8 4 15 10 15 5 0 16 16 24 35 8 19
19 35 25 35 5 0 12 13 16 29 3 16 13 32 21 35 8 3 14 11 14 18 0 8 9 21 20 31
11 9 20 25 20 36 0 10 9 21 20 24 12 3 20 14 20 25 0 12 5 24 11 27 5 4 15 17
20 28 5 12 21 38 34 57 14 19 31 44 38 54 6 11 20 28 30 38 9 10 17 29 17 43
0 18 5 25 20 25 13 0 20 7 20 20 0 11 9 29 20 40 11 11 20 25 20 30 0 6 9 19
20 30 11 11 20 27 20 35 0 8 4 15 10 15 5 0 16 16 24 35 8 19 19 35 25 35 5 0
12 13 16 29 3 16 13 32 21 35 8 3 14 12 14 19 0 8 7 21 16 28 9 7 20 23 25 36
5 13 15 23 24 23 10 0 15 10 15 30 0 18 5 30 13 30 7 0 18 12 25 28 23 51 43
82 53 82 6 0 17 16 25 35 8 19 18 35 23 35 5 0 11 14 15 30 3 18 12 30 21 30
8 0 15 9 15 20 0 11 9 29 20 40 11 11 20 23 20 28 0 4 9 15 20 25 11 9 20 26
20 37 0 11 7 20 15 20 8 0 17 14 21 35 3 20 12 35 20 35 8 0 14 6 14 14 0 7 7
20 17 27 9 8 22 28 30 44 26 54 41 78 57 87 9 5 16 20 16 33 0 16 6 25 15 25
8 0 22 15 30 33 32 65 40 77 52 77 6 0 14 14 18 31 4 17 13 33 20 36 8 2 17
17 20 33 3 16 13 31 21 34 8 3 14 11 14 18 0 7 9 19 20 26 11 7 20 20 20 31 0
10 9 26 20 36 11 10 20 24 20 32 0 7 6 16 14 19 8 3 18 19 21 35 4 16 12 32
18 36 15 10 57 69 57 80 0 5 9 16 20 26 11 9 20 26 20 37 0 10 9 24 20 30 11
6 20 17 20 25 0 9 9 23 20 32 11 10 20 25 20 34 0 9 9 24 20 34 11 10 20 24
20 32 0 7 5 13 11 13 5 0 17 16 25 35 8 19 18 35 23 35 5 0 12 14 16 30 4 17
13 30 21 30 8 0 14 9 14 20 0 11 5 20 11 20 5 0 16 15 24 34 8 18 21 36 30 39
8 4 15 17 15 31 0 15 7 25 20 29 12 3 20 14 20 26 0 12 7 24 15 27 8 4 15 12
15 19 0 8 11 27 25 43 14 17 25 34 25 40 0 5 6 12 14 15 8 3 17 19 21 36 4 17
13 31 21 31 8 0 14 9 14 20 0 11 9 29 20 40 11 11 20 22 20 25 0 3 9 14 20 25
11 11 20 28 20 38 0 10 9 25 20 35 11 9 20 23 20 31 0 8 6 16 14 19 8 3 17 19
21 36 4 17 12 31 19 31 6 0 24 24 39 54 15 30 34 57 42 60 8 3 15 15 15 26 0
11 6 23 14 26 8 3 27 30 42 60 15 30 33 54 40 54 7 0 15 14 19 30 4 17 11 30
16 30 6 0 17 16 25 35 8 19 19 35 24 35 6 0 10 9 10 20 0 11 9 28 20 37 11 10
20 22 20 28 0 6 9 18 20 28 11 9 20 26 20 37 0 11 6 20 14 20 8 0 17 14 21 30
4 17 11 30 16 30 5 0 14 10 19 23 6 12 26 42 44 67 19 25 35 53 35 62 1 10 10
22 21 28 11 6 20 20 20 31 0 11 7 22 15 26 9 3 22 21 30 39 8 19 19 34 24 34
6 0 11 9 11 20 0 11 4 20 10 20 5 0 16 15 24 34 9 22 23 36 38 39 42 8 1973 7
1986 -1z m3012 1 c20 -3 35 -13 37 -25 3 -10 12 -18 19 -18 8 0 14 -8 14 -19
0 -10 7 -24 15 -31 9 -7 23 -28 31 -46 9 -19 20 -34 25 -34 5 0 9 -8 9 -19 0
-10 9 -21 20 -24 15 -4 20 -14 20 -36 0 -21 5 -31 15 -31 8 0 15 -7 15 -15 0
-8 9 -24 20 -35 11 -11 20 -24 20 -29 0 -6 8 -16 19 -23 10 -7 22 -24 26 -38
4 -13 14 -30 21 -38 8 -7 14 -20 14 -27 0 -8 8 -19 19 -24 10 -6 21 -24 24
-41 4 -18 13 -30 22 -30 8 0 15 -9 15 -19 0 -10 6 -21 14 -24 8 -3 17 -19 21
-36 4 -17 13 -31 20 -31 7 0 16 -13 20 -30 4 -16 12 -30 19 -30 6 0 17 -12 24
-27 28 -62 53 -103 62 -103 6 0 10 -9 10 -20 0 -11 6 -20 13 -20 7 0 26 -26
42 -57 27 -55 36 -68 77 -111 9 -9 19 -29 23 -44 4 -16 13 -28 21 -28 8 0 14
-10 14 -25 0 -14 8 -29 20 -35 11 -6 20 -17 20 -24 0 -7 9 -21 20 -31 11 -10
20 -26 20 -37 0 -10 5 -18 11 -18 5 0 17 -16 25 -35 8 -19 18 -35 23 -35 5 0
12 -13 16 -30 4 -16 13 -30 21 -30 8 0 14 -6 14 -14 0 -7 9 -25 20 -39 11 -14
20 -32 20 -40 0 -8 9 -17 20 -20 14 -3 20 -14 20 -31 0 -16 6 -26 14 -26 8 0
19 -14 25 -30 5 -17 17 -33 26 -36 9 -4 15 -18 15 -35 0 -19 5 -29 15 -29 9 0
20 -11 25 -25 5 -14 14 -25 19 -25 5 0 12 -13 16 -30 4 -16 13 -30 20 -30 7 0
16 -13 20 -29 3 -16 13 -32 21 -35 8 -3 14 -12 14 -19 0 -8 9 -22 20 -32 11
-10 20 -24 20 -31 0 -7 9 -18 20 -24 12 -6 20 -21 20 -35 0 -13 6 -28 13 -32
7 -4 18 -20 24 -35 7 -16 17 -28 23 -28 5 0 10 -7 10 -14 0 -8 11 -27 25 -42
14 -15 25 -31 25 -36 0 -5 7 -16 15 -24 8 -9 15 -24 15 -34 0 -10 8 -20 18
-23 11 -2 22 -17 25 -36 4 -18 13 -31 22 -31 8 0 15 -9 15 -20 0 -11 4 -20 10
-20 9 0 34 -41 62 -102 7 -16 18 -28 24 -28 7 0 15 -13 19 -29 3 -16 13 -32
21 -35 8 -3 14 -12 14 -19 0 -8 9 -22 20 -32 11 -10 20 -26 20 -35 0 -10 9
-20 20 -23 14 -3 20 -14 20 -31 0 -16 6 -26 14 -26 8 0 17 -14 21 -31 4 -17
13 -33 21 -36 8 -3 14 -10 14 -15 0 -6 11 -21 25 -34 14 -13 25 -32 25 -44 0
-11 7 -20 15 -20 9 0 15 -10 15 -26 0 -17 6 -28 20 -31 13 -3 20 -14 20 -29 0
-13 9 -29 20 -36 11 -7 20 -18 20 -25 0 -7 9 -22 20 -33 11 -11 20 -27 20 -35
0 -8 6 -15 14 -15 8 0 17 -15 20 -35 4 -21 13 -35 21 -35 8 0 15 -6 15 -13 0
-7 9 -23 20 -34 10 -12 22 -33 25 -46 4 -14 13 -28 21 -31 8 -3 14 -14 14 -25
0 -10 9 -21 20 -24 13 -3 20 -14 20 -30 0 -16 7 -26 20 -30 12 -3 20 -14 20
-26 0 -12 9 -29 20 -38 11 -10 20 -23 20 -30 0 -7 4 -13 10 -13 5 0 16 -16 24
-35 8 -19 19 -35 25 -35 5 0 12 -14 16 -30 4 -17 13 -30 21 -30 8 0 14 -8 14
-18 0 -11 9 -27 20 -37 11 -10 20 -24 20 -32 0 -7 9 -22 20 -33 11 -11 20 -27
20 -35 0 -8 6 -15 14 -15 8 0 17 -15 20 -35 4 -19 13 -35 20 -35 8 0 16 -10
20 -22 3 -13 21 -41 41 -62 19 -22 35 -50 35 -63 0 -14 6 -23 15 -23 8 0 17
-11 21 -25 3 -14 15 -30 25 -36 11 -5 19 -18 19 -28 0 -10 9 -26 20 -36 11
-10 20 -24 20 -32 0 -7 4 -13 9 -13 5 0 14 -14 21 -30 7 -17 19 -34 27 -38 7
-5 15 -21 16 -38 l2 -29 -2447 0 c-1345 0 -2449 3 -2452 6 -3 3 -6 1006 -6
2230 0 2085 1 2225 17 2237 13 9 225 12 979 12 529 0 976 -3 994 -7z"/>
</g>
</svg>
